<svg width="28" height="26" viewBox="0 0 28 26" fill="none" xmlns="http://www.w3.org/2000/svg">
<rect x="0.5" y="0.5" width="27" height="25" rx="4.5" fill="black" fill-opacity="0.4" stroke="white"/>
<path d="M9.85227 18.1193C11.544 18.1193 12.8011 17.0582 12.8011 15.6307C12.8011 14.5227 12.1449 13.7173 11.0455 13.5341V13.4659C11.9276 13.1974 12.4773 12.473 12.4773 11.4886C12.4773 10.2528 11.5014 9.15341 9.88636 9.15341C8.37784 9.15341 7.125 10.0824 7.07386 11.4545H8.09659C8.13494 10.5852 8.96165 10.0739 9.86932 10.0739C10.8324 10.0739 11.4545 10.6577 11.4545 11.5398C11.4545 12.4602 10.7344 13.0568 9.69886 13.0568H9V13.9943H9.69886C11.0241 13.9943 11.7614 14.6676 11.7614 15.6307C11.7614 16.5554 10.956 17.1818 9.83523 17.1818C8.82528 17.1818 8.02415 16.6619 7.96023 15.8182H6.88636C6.95028 17.1903 8.16051 18.1193 9.85227 18.1193ZM17.3906 18C20.0497 18 21.5497 16.3466 21.5497 13.6193C21.5497 10.9091 20.0497 9.27273 17.5099 9.27273H14.6974V18H17.3906ZM15.7543 17.0625V10.2102H17.4418C19.4872 10.2102 20.527 11.5057 20.527 13.6193C20.527 15.75 19.4872 17.0625 17.3224 17.0625H15.7543Z" fill="white"/>
</svg>
