<svg width="75" height="26" viewBox="0 0 75 26" fill="none" xmlns="http://www.w3.org/2000/svg">
<rect x="0.5" y="0.5" width="74" height="25" rx="4.5" fill="black" fill-opacity="0.4" stroke="white"/>
<path d="M13.3849 18H14.4418V14.0966H18.2259V13.1591H14.4418V10.2102H18.6179V9.27273H13.3849V18ZM22.5554 18.1364C23.8849 18.1364 24.8565 17.4716 25.1634 16.483L24.1918 16.2102C23.9361 16.892 23.3438 17.233 22.5554 17.233C21.375 17.233 20.5611 16.4702 20.5142 15.0682H25.2656V14.642C25.2656 12.2045 23.8168 11.3693 22.4531 11.3693C20.6804 11.3693 19.5043 12.767 19.5043 14.7784C19.5043 16.7898 20.6634 18.1364 22.5554 18.1364ZM20.5142 14.1989C20.5824 13.1804 21.3026 12.2727 22.4531 12.2727C23.544 12.2727 24.2429 13.0909 24.2429 14.1989H20.5142ZM28.7216 18.1534C29.8636 18.1534 30.4602 17.5398 30.6648 17.1136H30.7159V18H31.7216V13.6875C31.7216 11.608 30.1364 11.3693 29.3011 11.3693C28.3125 11.3693 27.1875 11.7102 26.6761 12.9034L27.6307 13.2443C27.8523 12.767 28.3764 12.2557 29.3352 12.2557C30.2599 12.2557 30.7159 12.7457 30.7159 13.5852V13.6193C30.7159 14.1051 30.2216 14.0625 29.0284 14.2159C27.8139 14.3736 26.4886 14.642 26.4886 16.142C26.4886 17.4205 27.4773 18.1534 28.7216 18.1534ZM28.875 17.25C28.0739 17.25 27.4943 16.892 27.4943 16.1932C27.4943 15.4261 28.1932 15.1875 28.9773 15.0852C29.4034 15.0341 30.5455 14.9148 30.7159 14.7102V15.6307C30.7159 16.4489 30.0682 17.25 28.875 17.25ZM36.4038 11.4545H35.006V9.88636H34.0004V11.4545H33.0117V12.3068H34.0004V16.3977C34.0004 17.5398 34.9208 18.0852 35.7731 18.0852C36.1481 18.0852 36.3867 18.017 36.5231 17.9659L36.3185 17.0625C36.2333 17.0795 36.0969 17.1136 35.8754 17.1136C35.4322 17.1136 35.006 16.9773 35.006 16.125V12.3068H36.4038V11.4545ZM42.0415 15.3239C42.0415 16.5511 41.104 17.1136 40.354 17.1136C39.5188 17.1136 38.9222 16.5 38.9222 15.5455V11.4545H37.9165V15.6136C37.9165 17.2841 38.8029 18.0852 40.0302 18.0852C41.0188 18.0852 41.6665 17.5568 41.9734 16.892H42.0415V18H43.0472V11.4545H42.0415V15.3239ZM44.8892 18H45.8949V13.858C45.8949 12.9716 46.5938 12.3239 47.5483 12.3239C47.8168 12.3239 48.0938 12.375 48.1619 12.392V11.3693C48.0469 11.3608 47.7827 11.3523 47.6335 11.3523C46.8494 11.3523 46.1676 11.7955 45.929 12.4432H45.8608V11.4545H44.8892V18ZM51.8991 18.1364C53.2287 18.1364 54.2003 17.4716 54.5071 16.483L53.5355 16.2102C53.2798 16.892 52.6875 17.233 51.8991 17.233C50.7188 17.233 49.9048 16.4702 49.858 15.0682H54.6094V14.642C54.6094 12.2045 53.1605 11.3693 51.7969 11.3693C50.0241 11.3693 48.848 12.767 48.848 14.7784C48.848 16.7898 50.0071 18.1364 51.8991 18.1364ZM49.858 14.1989C49.9261 13.1804 50.6463 12.2727 51.7969 12.2727C52.8878 12.2727 53.5866 13.0909 53.5866 14.1989H49.858ZM58.6108 18.1364C59.8722 18.1364 60.2983 17.3523 60.5199 16.9943H60.6392V18H61.6108V9.27273H60.6051V12.4943H60.5199C60.2983 12.1534 59.9062 11.3693 58.6278 11.3693C56.9744 11.3693 55.8324 12.6818 55.8324 14.7443C55.8324 16.8239 56.9744 18.1364 58.6108 18.1364ZM58.7472 17.233C57.4858 17.233 56.8381 16.125 56.8381 14.7273C56.8381 13.3466 57.4688 12.2727 58.7472 12.2727C59.9744 12.2727 60.6222 13.2614 60.6222 14.7273C60.6222 16.2102 59.9574 17.233 58.7472 17.233Z" fill="white"/>
</svg>
