<svg width="769" height="27" viewBox="0 0 769 27" fill="none" xmlns="http://www.w3.org/2000/svg">
<path d="M14.6815 12.8451C15.8617 12.9399 16.8531 13.4142 17.7028 14.3152C18.5525 15.2162 18.9774 16.4492 18.9774 18.0142C18.9774 19.9111 18.3637 21.476 17.0891 22.6142C15.8145 23.7523 14.0206 24.3214 11.613 24.3214H0V1.84302H11.5658C13.5957 1.84302 15.248 2.41209 16.4754 3.50281C17.7028 4.64096 18.3165 6.11106 18.3165 7.96054C18.3165 9.38322 17.9388 10.4739 17.1363 11.3276C16.3338 12.1812 15.5312 12.608 14.6343 12.7028L14.6815 12.8451ZM5.52327 11.1379H10.3384C11.141 11.1379 11.8019 10.9008 12.3211 10.4265C12.7932 9.9523 13.0765 9.38322 13.0765 8.57704C13.0765 7.8657 12.8404 7.34405 12.3684 6.91724C11.8963 6.49044 11.2826 6.30075 10.5745 6.30075H5.52327V11.1379ZM10.6217 19.8636C11.4714 19.8636 12.1795 19.6265 12.6516 19.1997C13.1237 18.7729 13.3597 18.1564 13.3597 17.3502C13.3597 16.5915 13.1237 16.0224 12.6044 15.5956C12.1323 15.1688 11.4714 14.9317 10.7161 14.9317H5.52327V19.8636H10.6217ZM38.0964 24.3214H32.762V22.709C31.4402 24.1317 29.6935 24.843 27.6164 24.843C25.6336 24.843 24.0758 24.1791 22.8956 22.8987C21.7154 21.6183 21.1017 19.9111 21.1017 17.8245V7.48632H26.389V16.6863C26.389 17.6822 26.6722 18.4884 27.1915 19.1049C27.7108 19.7214 28.4189 20.0059 29.2686 20.0059C30.3544 20.0059 31.2041 19.6265 31.8178 18.8678C32.4315 18.109 32.7148 16.9234 32.7148 15.3111V7.48632H38.0492L38.0964 24.3214ZM54.5718 24.3214H40.4096V23.3255L47.0658 11.7544H40.5984V7.48632H54.4774V8.48219L47.8211 20.0533H54.5246V24.3214H54.5718ZM71 24.3214H56.885V23.3255L63.494 11.7544H57.0266V7.48632H70.9056V8.48219L64.2493 20.0533H70.9528L71 24.3214Z" fill="#718087"/>
<path d="M153.919 4.29194V11.4777H143.908V4.29194L140.262 4.2887V22.4071H143.908V14.6234H153.919V22.4071H157.571V4.29194H153.919Z" fill="#718087"/>
<path d="M202.426 4.2926V22.4034H218.422L216.396 19.2151H206.082V14.624H216.07V11.5531H206.082V7.40632H216.379L218.364 4.2926H202.426Z" fill="#718087"/>
<path d="M126.708 4.28772C122.916 4.28772 121 6.59351 121 9.94858V16.7117C121 20.5944 123.469 22.4072 126.69 22.4072L138.129 22.4061L136.008 19.0944H127.396C125.567 19.0944 124.77 18.4331 124.77 16.3854V10.2495C124.77 8.26997 125.441 7.49776 127.445 7.49776H136.098L138.135 4.28772H126.708Z" fill="#718087"/>
<path d="M186.423 4.28326C184.233 4.28326 181.988 5.59985 181.988 8.9863V9.85645C181.988 13.3868 184.148 14.7337 186.309 14.7429H193.895C194.683 14.7429 195.324 14.8739 195.324 16.2056L195.322 17.7441C195.302 18.9406 194.706 19.2144 193.868 19.2144H183.888L181.844 22.4028H194.103C197.059 22.4028 199.067 20.9319 199.067 17.5347V16.2863C199.067 13.0016 197.202 11.4496 194.311 11.4496H187.067C186.264 11.4496 185.704 11.2304 185.704 10.041V8.78824C185.704 7.77523 186.088 7.40563 187.024 7.40563L196.528 7.40184L198.515 4.27893L186.423 4.28326Z" fill="#718087"/>
<path d="M168.165 4.2926L159.574 22.4067H163.634L165.308 18.6658H174.643L176.311 22.4067H180.389L171.778 4.2926H168.165ZM169.966 8.05352L173.267 15.5824H166.686L169.966 8.05352Z" fill="#718087"/>
<path d="M362.601 12.3861V10.7297H360.544V8.15459L360.475 8.17598L358.505 8.77864V10.7297H355.456V9.64205C355.426 9.23028 355.546 8.82164 355.792 8.49024C355.91 8.3601 356.056 8.25802 356.219 8.1914C356.382 8.12478 356.558 8.09531 356.734 8.10511C357.043 8.10923 357.347 8.17849 357.628 8.30837L357.704 8.34225V6.59937L357.668 6.58645C357.298 6.47255 356.912 6.42103 356.525 6.434C355.961 6.4251 355.404 6.55896 354.905 6.82314C354.437 7.07519 354.051 7.4568 353.793 7.92235C353.526 8.41723 353.39 8.97262 353.4 9.53507V10.7297H351.968V12.3861H353.4V19.3634H355.456V12.3861H358.505V16.8186C358.505 18.6462 359.366 19.5702 361.065 19.5702C361.359 19.5685 361.651 19.5361 361.938 19.4735C362.158 19.4361 362.372 19.3683 362.574 19.272L362.601 19.2559V17.5844L362.517 17.6397C362.39 17.7204 362.25 17.7806 362.104 17.818C361.972 17.8587 361.836 17.8819 361.698 17.8871C361.538 17.9011 361.376 17.8798 361.225 17.8247C361.074 17.7697 360.937 17.6821 360.823 17.5683C360.606 17.2422 360.508 16.8518 360.544 16.462V12.3861H362.601ZM347.376 17.8884C347.047 17.9055 346.72 17.8483 346.417 17.721C346.114 17.5937 345.844 17.3997 345.626 17.1533C345.176 16.5589 344.953 15.8226 344.998 15.0779C344.95 14.3159 345.173 13.5614 345.626 12.9473C345.839 12.6991 346.106 12.5029 346.406 12.3735C346.706 12.2441 347.032 12.185 347.359 12.2006C347.675 12.1854 347.991 12.2416 348.283 12.3651C348.575 12.4885 348.836 12.6761 349.045 12.9138C349.496 13.5225 349.714 14.2718 349.661 15.0271C349.713 15.7851 349.509 16.5386 349.082 17.1667C348.873 17.4116 348.61 17.6043 348.314 17.7295C348.018 17.8546 347.696 17.9096 347.376 17.8884ZM347.467 10.5184C346.852 10.4846 346.236 10.5771 345.658 10.7904C345.08 11.0037 344.552 11.3332 344.106 11.7585C343.689 12.2138 343.367 12.7475 343.159 13.3286C342.95 13.9097 342.86 14.5265 342.892 15.143C342.863 15.7336 342.952 16.3241 343.156 16.8792C343.36 17.4344 343.673 17.9428 344.077 18.3743C344.499 18.7789 344.998 19.0934 345.545 19.2987C346.092 19.5039 346.675 19.5955 347.259 19.568C347.865 19.5978 348.471 19.5014 349.038 19.2851C349.605 19.0687 350.121 18.737 350.553 18.311C350.966 17.8601 351.286 17.3319 351.495 16.7568C351.703 16.1816 351.796 15.5709 351.767 14.9598C351.832 13.7674 351.422 12.5977 350.628 11.7059C350.212 11.2999 349.716 10.9849 349.172 10.7807C348.628 10.5765 348.047 10.4876 347.467 10.5197V10.5184ZM339.577 10.5197C338.722 10.4836 337.881 10.7435 337.196 11.2557C336.901 11.4794 336.663 11.7697 336.502 12.1028C336.341 12.4359 336.26 12.8024 336.267 13.1724C336.26 13.5389 336.328 13.903 336.468 14.2422C336.606 14.5546 336.816 14.8296 337.082 15.0445C337.465 15.3323 337.885 15.5674 338.33 15.7434C338.686 15.8833 339.033 16.045 339.369 16.2275C339.546 16.3198 339.702 16.4478 339.827 16.6033C339.919 16.7499 339.963 16.921 339.954 17.0936C339.954 17.6731 339.52 17.9557 338.626 17.9557C338.243 17.9466 337.864 17.8772 337.502 17.7502C337.091 17.6158 336.703 17.419 336.351 17.1667L336.266 17.1057V19.0852L336.297 19.0999C336.646 19.2526 337.012 19.3655 337.387 19.4365C337.769 19.5199 338.159 19.5647 338.551 19.5702C339.449 19.6171 340.336 19.3559 341.065 18.8298C341.365 18.5999 341.606 18.3023 341.768 17.9615C341.931 17.6206 342.011 17.2461 342.001 16.8685C342.016 16.3297 341.837 15.8035 341.497 15.3851C341.022 14.891 340.435 14.5174 339.786 14.2952C339.349 14.1489 338.938 13.935 338.567 13.6614C338.483 13.5734 338.417 13.4689 338.375 13.3545C338.332 13.2401 338.314 13.1181 338.321 12.9963C338.319 12.8762 338.347 12.7574 338.401 12.6502C338.455 12.543 338.535 12.4507 338.633 12.3812C338.889 12.204 339.197 12.1171 339.508 12.1342C339.861 12.1359 340.212 12.1898 340.55 12.2943C340.872 12.3883 341.179 12.5305 341.46 12.7159L341.543 12.7734V10.8982L341.511 10.8843C341.213 10.7657 340.904 10.6793 340.588 10.6267C340.254 10.5613 339.915 10.5263 339.575 10.522L339.577 10.5197ZM330.908 17.8884C330.58 17.9055 330.252 17.8483 329.95 17.721C329.647 17.5937 329.377 17.3997 329.159 17.1533C328.709 16.5595 328.486 15.8241 328.531 15.0802C328.483 14.3181 328.706 13.5636 329.16 12.9495C329.372 12.7013 329.639 12.505 329.939 12.3756C330.239 12.2462 330.565 12.1871 330.892 12.2029C331.208 12.1877 331.524 12.2439 331.816 12.3673C332.108 12.4908 332.369 12.6783 332.578 12.9161C333.029 13.5247 333.247 14.2741 333.195 15.0294C333.247 15.7873 333.042 16.5408 332.615 17.169C332.407 17.4139 332.144 17.6066 331.847 17.7318C331.551 17.8569 331.23 17.911 330.909 17.8897L330.908 17.8884ZM331.001 10.5206C330.385 10.4867 329.77 10.5793 329.192 10.7926C328.614 11.0059 328.086 11.3353 327.64 11.7607C327.223 12.2159 326.901 12.7497 326.692 13.3308C326.484 13.9119 326.393 14.5287 326.425 15.1453C326.396 15.7359 326.486 16.3264 326.689 16.8816C326.893 17.4367 327.207 17.9451 327.611 18.3765C328.032 18.7811 328.532 19.0957 329.079 19.3009C329.626 19.5062 330.209 19.5978 330.792 19.5702C331.399 19.6 332.004 19.5036 332.571 19.2872C333.138 19.0709 333.654 18.7392 334.086 18.3132C334.5 17.8624 334.82 17.3341 335.028 16.759C335.237 16.1838 335.329 15.5731 335.301 14.9621C335.365 13.7695 334.956 12.5998 334.161 11.7081C333.745 11.3022 333.25 10.9872 332.706 10.783C332.161 10.5788 331.581 10.4899 331.001 10.522V10.5206ZM323.305 12.2252V10.7297H321.274V19.3634H323.305V14.9465C323.276 14.297 323.453 13.6551 323.811 13.1126C323.955 12.8963 324.15 12.7195 324.38 12.5983C324.61 12.4772 324.866 12.4155 325.126 12.4191C325.332 12.4222 325.537 12.4522 325.736 12.5082C325.904 12.5454 326.064 12.6102 326.21 12.6999L326.295 12.7618V10.715L326.262 10.7007C326.007 10.6096 325.737 10.5686 325.467 10.5799C324.971 10.575 324.489 10.7477 324.109 11.0667C323.753 11.3792 323.484 11.7785 323.327 12.2256L323.305 12.2252ZM317.637 10.5215C316.777 10.5042 315.926 10.7087 315.168 11.1152C314.47 11.4991 313.903 12.0823 313.539 12.7904C313.155 13.5602 312.963 14.4114 312.979 15.2714C312.969 16.0469 313.156 16.8123 313.523 17.4957C313.871 18.1434 314.399 18.6769 315.043 19.0322C315.724 19.3991 316.489 19.585 317.263 19.572C318.116 19.5994 318.962 19.4015 319.715 18.9983L319.741 18.9831V17.1221L319.656 17.1846C319.352 17.405 319.017 17.5794 318.662 17.7021C318.351 17.8184 318.022 17.8821 317.689 17.8906C317.338 17.9077 316.987 17.8506 316.66 17.7229C316.332 17.5953 316.035 17.4 315.788 17.1498C315.296 16.5829 315.044 15.8462 315.087 15.0967C315.05 14.3262 315.311 13.571 315.818 12.9892C316.061 12.7296 316.356 12.5251 316.685 12.3895C317.014 12.2539 317.367 12.1902 317.723 12.2029C318.422 12.2139 319.1 12.4497 319.656 12.8755L319.741 12.9375V10.9762L319.713 10.9606C319.418 10.8086 319.101 10.7015 318.774 10.6428C318.4 10.5637 318.02 10.5229 317.638 10.5211L317.637 10.5215ZM311.582 10.7292H309.551V19.3634H311.582V10.7292ZM310.587 7.05136C310.265 7.04625 309.954 7.16812 309.722 7.39057C309.605 7.49795 309.512 7.629 309.449 7.77502C309.387 7.92105 309.356 8.0787 309.359 8.2375C309.356 8.39338 309.386 8.54821 309.447 8.69149C309.509 8.83476 309.601 8.96314 309.716 9.06792C309.952 9.28704 310.264 9.40569 310.585 9.39867C310.908 9.4051 311.221 9.28678 311.458 9.06837C311.575 8.96434 311.668 8.8362 311.731 8.69276C311.793 8.54933 311.824 8.39401 311.821 8.2375C311.823 8.08111 311.792 7.92606 311.732 7.78198C311.671 7.6379 311.581 7.50785 311.468 7.39993C311.352 7.28538 311.214 7.19546 311.062 7.13556C310.91 7.07566 310.748 7.04702 310.585 7.05136H310.587ZM305.518 10.0923V19.3638H307.59V7.31613H304.722L301.076 16.2645L297.537 7.31613H294.551V19.3629H296.499V10.0914H296.566L300.302 19.3629H301.773L305.451 10.0914L305.518 10.0923Z" fill="#718087"/>
<path d="M277.976 12.8438H268.422V3.29004H277.976V12.8438Z" fill="#718087"/>
<path d="M288.525 12.8438H278.971V3.29004H288.525V12.8438Z" fill="#718087"/>
<path d="M277.976 23.3959H268.422V13.8422H277.976V23.3959Z" fill="#718087"/>
<path d="M288.525 23.3959H278.971V13.8422H288.525V23.3959Z" fill="#718087"/>
<path opacity="0.8" d="M433.984 17.2062V22.1646C432.182 23.7497 427.875 24.6926 424.668 24.6926C421.466 24.6926 412.601 22.7092 412.601 13.3898C412.601 4.07027 421.039 2.06249 424.442 2.06249C427.85 2.06249 431.48 2.68027 433.582 4.07027V8.43128C433.582 8.9759 432.831 8.92713 432.831 8.43128C432.781 7.68751 430.778 3.22895 425.769 3.3265C420.361 3.43623 416.707 7.64281 416.707 13.1906C416.707 18.7384 420.258 23.5018 425.621 23.3514C427.362 23.3026 429.176 22.758 430.055 22.0346L430.076 17.2062C430.076 15.8202 429.226 15.3244 428.376 15.3244C427.822 15.3244 427.822 14.5318 428.376 14.5318H435.684C436.235 14.5318 436.235 15.3731 435.684 15.3244C434.838 15.3244 433.984 15.8202 433.984 17.2062ZM483.259 8.43535C483.259 8.97997 482.709 8.9312 482.709 8.43535C482.656 7.69158 480.656 3.08264 475.647 3.18424C470.24 3.28992 466.581 7.64687 466.581 13.1947C466.581 18.7425 470.088 23.6522 475.446 23.5059C480.804 23.3555 483.358 18.1044 483.559 17.4094C483.76 16.7144 484.109 16.816 484.109 17.3606V21.4249C481.909 23.01 477.749 24.6967 474.547 24.6967C471.344 24.6967 462.479 22.7133 462.479 13.3938C462.479 4.07027 470.892 1.84302 474.296 1.84302C477.704 1.84302 481.157 2.68433 483.263 4.07027V8.43535H483.259ZM460.574 2.38764C461.375 2.38764 461.375 3.13141 460.574 3.13141C459.724 3.13141 458.874 3.62726 458.874 5.01319L458.776 15.8446C458.776 21.0307 454.526 24.843 449.283 24.843C444.04 24.843 439.946 21.0307 439.946 15.8446V5.01319C439.946 3.62319 439.092 3.13141 438.242 3.13141C437.442 3.13141 437.442 2.38764 438.242 2.38764H445.653C446.454 2.38764 446.454 3.13141 445.653 3.13141C444.799 3.13141 443.949 3.62726 443.949 5.01319L443.941 17.1086C443.941 20.7665 446.963 23.7335 450.659 23.7335C454.354 23.7335 457.351 20.0227 457.351 16.3689L457.17 5.01319C457.17 3.62319 456.321 3.13141 455.467 3.13141C454.67 3.13141 454.67 2.38764 455.467 2.38764H460.574ZM507.747 8.43535C507.747 8.97997 507.197 8.9312 507.197 8.43535C507.147 7.69158 505.144 3.08264 500.135 3.18424C494.727 3.28992 491.069 7.64687 491.069 13.1947C491.069 18.7425 494.575 23.6522 499.933 23.5059C505.292 23.3595 507.845 18.1044 508.047 17.4094C508.248 16.7144 508.601 16.816 508.601 17.3606V21.4249C506.396 23.01 502.241 24.6967 499.034 24.6967C495.832 24.6967 486.967 22.7133 486.967 13.3938C486.967 4.07027 495.38 1.84302 498.788 1.84302C502.192 1.84302 505.649 2.68433 507.751 4.07027V8.43535H507.747Z" fill="#718087"/>
<path d="M603.399 6.70527C603.399 7.66702 602.628 8.44143 601.672 8.44143C600.716 8.44143 599.946 7.66702 599.946 6.70527C599.946 5.74353 600.69 4.96911 601.672 4.96911C602.655 4.99579 603.399 5.77048 603.399 6.70527ZM596.282 10.2048V10.6323C596.282 10.6323 595.459 9.56329 593.706 9.56329C590.812 9.56329 588.555 11.7806 588.555 14.8524C588.555 17.8977 590.786 20.1414 593.706 20.1414C595.486 20.1414 596.282 19.0463 596.282 19.0463V19.5002C596.282 19.7139 596.442 19.8738 596.654 19.8738H598.804V9.82961H596.654C596.442 9.83041 596.282 10.0177 596.282 10.2048ZM596.282 16.6422C595.884 17.23 595.087 17.7376 594.131 17.7376C592.432 17.7376 591.131 16.6691 591.131 14.8524C591.131 13.0359 592.432 11.9674 594.131 11.9674C595.061 11.9674 595.911 12.5016 596.282 13.0626V16.6422ZM600.398 9.83041H602.947V19.8746H600.398V9.83041ZM638.476 9.56303C636.724 9.56303 635.9 10.632 635.9 10.632V4.9958H633.351V19.8746H635.502C635.715 19.8746 635.874 19.6875 635.874 19.5004V19.0465C635.874 19.0465 636.697 20.1417 638.449 20.1417C641.344 20.1417 643.601 17.8985 643.601 14.8532C643.601 11.8078 641.344 9.56303 638.476 9.56303ZM638.051 17.7106C637.069 17.7106 636.299 17.2036 635.9 16.6155V13.0359C636.299 12.5016 637.148 11.9407 638.051 11.9407C639.751 11.9407 641.052 13.0092 641.052 14.8257C641.052 16.6422 639.751 17.7106 638.051 17.7106ZM632.024 13.9178V19.9013H629.474V14.2114C629.474 12.5555 628.943 11.8873 627.51 11.8873C626.741 11.8873 625.944 12.2881 625.438 12.876V19.8748H622.89V9.83068H624.907C625.12 9.83068 625.279 10.0177 625.279 10.2048V10.6323C626.023 9.85736 627.005 9.56329 627.987 9.56329C629.103 9.56329 630.032 9.88432 630.776 10.5253C631.678 11.2733 632.024 12.2348 632.024 13.9178ZM616.702 9.56303C614.95 9.56303 614.126 10.632 614.126 10.632V4.9958H611.577V19.8746H613.728C613.94 19.8746 614.1 19.6875 614.1 19.5004V19.0465C614.1 19.0465 614.923 20.1417 616.675 20.1417C619.57 20.1417 621.827 17.8985 621.827 14.8532C621.853 11.8075 619.596 9.56303 616.702 9.56303ZM616.277 17.7106C615.295 17.7106 614.525 17.2036 614.126 16.6155V13.0359C614.525 12.5016 615.374 11.9407 616.277 11.9407C617.977 11.9407 619.278 13.0092 619.278 14.8257C619.278 16.6422 617.977 17.7106 616.277 17.7106ZM609.373 9.56303C610.143 9.56303 610.541 9.69698 610.541 9.69698V12.0741C610.541 12.0741 608.417 11.3528 607.09 12.8758V19.901H604.54V9.83041H606.691C606.904 9.83041 607.063 10.0175 607.063 10.2045V10.632C607.541 10.0708 608.577 9.56303 609.373 9.56303ZM582.899 18.9662C582.767 18.6457 582.634 18.2985 582.501 18.0045C582.288 17.5238 582.076 17.0694 581.89 16.6422L581.864 16.6155C580.031 12.6084 578.067 8.54844 575.995 4.54188L575.916 4.38123C575.698 3.96559 575.485 3.54704 575.279 3.12568C575.013 2.64454 574.748 2.13751 574.323 1.65637C573.473 0.587882 572.251 0 570.951 0C569.623 0 568.428 0.587885 567.552 1.60273C567.153 2.08334 566.861 2.5909 566.596 3.07204C566.389 3.49314 566.176 3.91169 565.959 4.32759L565.879 4.48824C563.834 8.4948 561.843 12.555 560.011 16.5618L559.984 16.6149C559.798 17.043 559.585 17.4969 559.373 17.9772C559.24 18.2713 559.108 18.5918 558.975 18.939C558.63 19.9271 558.523 20.8622 558.656 21.8242C558.949 23.8278 560.276 25.51 562.108 26.2585C562.799 26.5526 563.516 26.686 564.259 26.686C564.472 26.686 564.737 26.6594 564.95 26.6324C565.826 26.5257 566.729 26.2321 567.605 25.7246C568.694 25.11 569.73 24.2288 570.898 22.9466C572.066 24.2288 573.128 25.11 574.191 25.7246C575.067 26.2321 575.97 26.5257 576.846 26.6324C577.058 26.6596 577.324 26.686 577.537 26.686C578.28 26.686 579.024 26.5526 579.687 26.2585C581.546 25.51 582.847 23.8011 583.14 21.8242C583.35 20.8894 583.244 19.9549 582.899 18.9662ZM570.924 20.3552C569.49 18.5387 568.56 16.8292 568.242 15.3871C568.109 14.7726 568.082 14.2383 568.162 13.7575C568.215 13.3299 568.375 12.9558 568.587 12.6353C569.092 11.9145 569.941 11.4601 570.924 11.4601C571.907 11.4601 572.783 11.8876 573.261 12.6353C573.474 12.9558 573.633 13.3302 573.686 13.7575C573.766 14.2386 573.739 14.7993 573.606 15.3871C573.287 16.8025 572.357 18.5123 570.924 20.3552ZM581.518 21.6107C581.333 22.9997 580.403 24.2022 579.102 24.7364C578.465 25.0033 577.774 25.0836 577.084 25.0033C576.42 24.9229 575.756 24.7092 575.066 24.3089C574.11 23.7741 573.154 22.9466 572.039 21.7175C573.791 19.5541 574.853 17.577 575.252 15.8144C575.438 14.9861 575.465 14.2383 575.385 13.5434C575.279 12.8758 575.039 12.2612 574.668 11.7269C573.844 10.5245 572.463 9.83041 570.923 9.83041C569.384 9.83041 568.003 10.5517 567.18 11.7269C566.808 12.2612 566.569 12.8758 566.463 13.5434C566.357 14.2383 566.383 15.0127 566.595 15.8144C566.993 17.577 568.082 19.5805 569.808 21.7442C568.719 22.973 567.737 23.8013 566.781 24.3356C566.09 24.7364 565.427 24.9502 564.763 25.0299C564.046 25.1103 563.356 25.0033 562.745 24.7631C561.444 24.2288 560.514 23.0264 560.329 21.6374C560.249 20.9697 560.302 20.3021 560.568 19.5541C560.647 19.2867 560.78 19.0198 560.913 18.6993C561.099 18.2718 561.311 17.8174 561.524 17.3635L561.55 17.3104C563.382 13.3299 565.347 9.26975 567.392 5.31656L567.471 5.15591C567.684 4.75563 567.897 4.32813 568.109 3.92731C568.321 3.49981 568.56 3.09899 568.852 2.75154C569.41 2.11109 570.153 1.76338 570.977 1.76338C571.8 1.76338 572.544 2.11109 573.101 2.75154C573.393 3.09979 573.632 3.50061 573.845 3.92731C574.057 4.32813 574.27 4.75563 574.482 5.15591L574.562 5.31656C576.575 9.28617 578.514 13.2937 580.377 17.337V17.3637C580.59 17.7918 580.775 18.2721 580.988 18.7001C581.121 19.0201 581.253 19.287 581.333 19.5543C581.545 20.2482 581.625 20.9164 581.518 21.6107Z" fill="#718087"/>
<path d="M705.776 5.34302H708.66V14.6954C708.66 19.6159 705.585 21.343 701.123 21.343C696.677 21.343 693.601 19.6159 693.601 14.6954V5.71776C693.601 5.45707 693.728 5.34302 693.983 5.34302H696.868V14.5487C696.868 17.4978 698.143 18.7198 701.123 18.7198C704.119 18.7198 705.394 17.4978 705.394 14.5487V5.71776C705.394 5.45707 705.521 5.34302 705.776 5.34302ZM738.429 7.90106V11.844H745.727C745.855 11.844 745.903 11.9092 745.855 12.0396L745.058 14.0599C744.978 14.2391 744.867 14.3206 744.628 14.3206H740.341C738.939 14.3206 738.429 14.7605 738.429 15.7218V18.508H748.309C748.436 18.508 748.484 18.5732 748.436 18.7035L747.608 20.8053C747.528 20.9846 747.417 21.066 747.178 21.066H736.357C735.528 21.066 735.21 20.7728 735.21 20.1373V6.43467C735.21 5.66888 735.624 5.34302 736.708 5.34302H748.309C748.436 5.34302 748.484 5.40819 748.436 5.52224L747.608 7.64037C747.528 7.8196 747.417 7.90106 747.178 7.90106H738.429ZM729.266 16.7157C729.266 19.8603 727.098 21.066 724.055 21.066H715.991C715.146 21.066 714.844 20.7728 714.844 20.1373V6.43467C714.844 5.66888 715.242 5.34302 716.342 5.34302H722.891C725.76 5.34302 728.533 5.84811 728.533 9.33487C728.533 10.8339 728.007 12.1047 726.748 12.7728C728.485 13.2453 729.266 14.842 729.266 16.7157ZM718.015 11.8929H723.13C724.819 11.8929 725.298 11.2249 725.298 9.85626C725.298 8.48762 724.819 7.83589 723.13 7.83589H718.015V11.8929ZM726.031 16.4224C726.031 14.9723 725.537 14.2554 723.72 14.2554H719.943C718.541 14.2554 718.015 14.6954 718.015 15.6567V18.5732H723.72C725.537 18.5732 726.031 17.8563 726.031 16.4224ZM768.42 21.066H765.488C765.249 21.066 765.153 20.9683 765.058 20.8053L761.95 15.0701H759.098C757.695 15.0701 757.169 15.51 757.169 16.4713V21.066H754.365C754.11 21.066 753.982 20.9357 753.982 20.6913V6.43467C753.982 5.66888 754.397 5.34302 755.48 5.34302H762.062C765.902 5.34302 768.213 6.36949 768.213 10.1821C768.213 13.1312 766.827 14.288 765.105 14.7442L768.564 20.789C768.627 20.8868 768.627 21.066 768.42 21.066ZM764.978 10.2473C764.978 8.65055 764.548 7.86848 762.54 7.86848H757.169V12.6261H762.54C764.548 12.6261 764.978 11.8603 764.978 10.2473Z" fill="#718087"/>
</svg>
