<svg width="250" height="272" viewBox="0 0 250 272" fill="none" xmlns="http://www.w3.org/2000/svg">
<g filter="url(#filter0_dddddd_2_114)">
<rect x="80" y="2" width="90" height="90" rx="20" fill="#9672FF"/>
</g>
<path d="M137.293 60.7071C137.683 61.0976 138.317 61.0976 138.707 60.7071C139.098 60.3166 139.098 59.6834 138.707 59.2929L137.293 60.7071ZM138.707 59.2929L131.38 51.9653L129.965 53.3795L137.293 60.7071L138.707 59.2929ZM132.69 45.3448C132.69 50.5058 128.506 54.6897 123.345 54.6897V56.6897C129.61 56.6897 134.69 51.6104 134.69 45.3448H132.69ZM123.345 54.6897C118.184 54.6897 114 50.5058 114 45.3448H112C112 51.6104 117.079 56.6897 123.345 56.6897V54.6897ZM114 45.3448C114 40.1838 118.184 36 123.345 36V34C117.079 34 112 39.0793 112 45.3448H114ZM123.345 36C128.506 36 132.69 40.1838 132.69 45.3448H134.69C134.69 39.0793 129.61 34 123.345 34V36Z" fill="white"/>
<defs>
<filter id="filter0_dddddd_2_114" x="0" y="0.703704" width="250" height="271.296" filterUnits="userSpaceOnUse" color-interpolation-filters="sRGB">
<feFlood flood-opacity="0" result="BackgroundImageFix"/>
<feColorMatrix in="SourceAlpha" type="matrix" values="0 0 0 0 0 0 0 0 0 0 0 0 0 0 0 0 0 0 127 0" result="hardAlpha"/>
<feOffset dy="1.85185"/>
<feGaussianBlur stdDeviation="1.57407"/>
<feColorMatrix type="matrix" values="0 0 0 0 0.588235 0 0 0 0 0.447059 0 0 0 0 1 0 0 0 0.0168519 0"/>
<feBlend mode="normal" in2="BackgroundImageFix" result="effect1_dropShadow_2_114"/>
<feColorMatrix in="SourceAlpha" type="matrix" values="0 0 0 0 0 0 0 0 0 0 0 0 0 0 0 0 0 0 127 0" result="hardAlpha"/>
<feOffset dy="8.14815"/>
<feGaussianBlur stdDeviation="3.25926"/>
<feColorMatrix type="matrix" values="0 0 0 0 0.588235 0 0 0 0 0.447059 0 0 0 0 1 0 0 0 0.0274815 0"/>
<feBlend mode="normal" in2="effect1_dropShadow_2_114" result="effect2_dropShadow_2_114"/>
<feColorMatrix in="SourceAlpha" type="matrix" values="0 0 0 0 0 0 0 0 0 0 0 0 0 0 0 0 0 0 127 0" result="hardAlpha"/>
<feOffset dy="20"/>
<feGaussianBlur stdDeviation="6.5"/>
<feColorMatrix type="matrix" values="0 0 0 0 0.588235 0 0 0 0 0.447059 0 0 0 0 1 0 0 0 0.035 0"/>
<feBlend mode="normal" in2="effect2_dropShadow_2_114" result="effect3_dropShadow_2_114"/>
<feColorMatrix in="SourceAlpha" type="matrix" values="0 0 0 0 0 0 0 0 0 0 0 0 0 0 0 0 0 0 127 0" result="hardAlpha"/>
<feOffset dy="38.5185"/>
<feGaussianBlur stdDeviation="12.7407"/>
<feColorMatrix type="matrix" values="0 0 0 0 0.588235 0 0 0 0 0.447059 0 0 0 0 1 0 0 0 0.0425185 0"/>
<feBlend mode="normal" in2="effect3_dropShadow_2_114" result="effect4_dropShadow_2_114"/>
<feColorMatrix in="SourceAlpha" type="matrix" values="0 0 0 0 0 0 0 0 0 0 0 0 0 0 0 0 0 0 127 0" result="hardAlpha"/>
<feOffset dy="64.8148"/>
<feGaussianBlur stdDeviation="23.4259"/>
<feColorMatrix type="matrix" values="0 0 0 0 0.588235 0 0 0 0 0.447059 0 0 0 0 1 0 0 0 0.0531481 0"/>
<feBlend mode="normal" in2="effect4_dropShadow_2_114" result="effect5_dropShadow_2_114"/>
<feColorMatrix in="SourceAlpha" type="matrix" values="0 0 0 0 0 0 0 0 0 0 0 0 0 0 0 0 0 0 127 0" result="hardAlpha"/>
<feOffset dy="100"/>
<feGaussianBlur stdDeviation="40"/>
<feColorMatrix type="matrix" values="0 0 0 0 0.588235 0 0 0 0 0.447059 0 0 0 0 1 0 0 0 0.07 0"/>
<feBlend mode="normal" in2="effect5_dropShadow_2_114" result="effect6_dropShadow_2_114"/>
<feBlend mode="normal" in="SourceGraphic" in2="effect6_dropShadow_2_114" result="shape"/>
</filter>
</defs>
</svg>
